<svg width="64" height="24" xmlns="http://www.w3.org/2000/svg" shape-rendering="crispEdges">
  <!-- Mario-style Cloud matching the screenshot -->

  <!-- Black outline -->
  <path d="M 12 8 L 12 4 L 20 4 L 20 0 L 28 0 L 28 4 L 36 4 L 36 8 L 44 8 L 44 12 L 48 12 L 48 16 L 44 16 L 44 20 L 8 20 L 8 16 L 4 16 L 4 12 L 8 12 L 8 8 Z" fill="#000000"/>

  <!-- White cloud body -->
  <rect x="10" y="6" width="2" height="2" fill="#FFFFFF"/>
  <rect x="12" y="4" width="8" height="4" fill="#FFFFFF"/>
  <rect x="20" y="2" width="8" height="6" fill="#FFFFFF"/>
  <rect x="28" y="4" width="8" height="4" fill="#FFFFFF"/>
  <rect x="36" y="6" width="8" height="6" fill="#FFFFFF"/>
  <rect x="10" y="8" width="34" height="4" fill="#FFFFFF"/>
  <rect x="6" y="12" width="42" height="4" fill="#FFFFFF"/>
  <rect x="10" y="16" width="34" height="2" fill="#FFFFFF"/>

  <!-- Light shading inside -->
  <rect x="12" y="10" width="30" height="4" fill="#E0F0FF"/>
</svg>
